<svg width="34.000000" height="17.000000" viewBox="0 0 34 17" fill="none" xmlns="http://www.w3.org/2000/svg" xmlns:xlink="http://www.w3.org/1999/xlink">
	<defs>
		<clipPath id="clip141_17">
			<rect id="svg" width="34.000000" height="17.000000" fill="white" fill-opacity="0"/>
		</clipPath>
	</defs>
	<g clip-path="url(#clip141_17)">
		<path id="path" d="M17 16.66C16.47 16.66 15.95 16.48 15.54 16.13L1.94 4.68C1.48 4.29 1.19 3.73 1.14 3.12C1.08 2.52 1.27 1.91 1.65 1.45C2.04 0.98 2.59 0.68 3.19 0.63C3.79 0.57 4.38 0.76 4.85 1.15L17 11.41L29.15 1.51C29.38 1.32 29.64 1.18 29.93 1.1C30.22 1.01 30.52 0.98 30.81 1.01C31.11 1.05 31.4 1.14 31.66 1.28C31.92 1.43 32.15 1.62 32.34 1.86C32.55 2.09 32.71 2.37 32.8 2.67C32.9 2.97 32.93 3.29 32.9 3.6C32.87 3.91 32.78 4.22 32.63 4.5C32.48 4.77 32.27 5.01 32.02 5.2L18.42 16.27C18 16.56 17.5 16.7 17 16.66Z" fill="#FFFFFF" fill-opacity="1.000000" fill-rule="nonzero"/>
	</g>
</svg>
