<svg width="128.000000" height="128.000000" viewBox="0 0 128 128" fill="none" xmlns="http://www.w3.org/2000/svg" xmlns:xlink="http://www.w3.org/1999/xlink">
	<desc>
			Created with Pixso.
	</desc>
	<defs>
		<clipPath id="clip270_16">
			<rect id="Favicon" width="128.000000" height="128.000000" fill="white" fill-opacity="0"/>
		</clipPath>
	</defs>
	<rect id="Favicon" width="128.000000" height="128.000000" fill="#FFFFFF" fill-opacity="0"/>
	<g clip-path="url(#clip270_16)">
		<rect id="Rectangle 728" rx="25.000000" width="128.000000" height="128.000000" fill="#E41E6B" fill-opacity="1.000000"/>
		<path id="path" d="M56.37 54.28C56.37 41.95 33.75 42.76 33.75 35.32C33.75 31.72 37.19 29.96 41.16 29.96C47.86 29.96 49.05 34.28 52.08 34.28C54.22 34.28 55.26 32.91 55.26 31.4C55.26 27.86 49.92 25.19 44.8 24.26L44.8 20.85C44.8 18.72 43.09 17 40.97 17C38.84 17 37.13 18.72 37.13 20.85L37.13 24.38C31.55 25.66 26.75 29.55 26.75 35.88C26.75 47.71 49.36 47.24 49.36 55.55C49.36 58.43 46.26 61.31 41.16 61.31C33.51 61.31 30.97 56.11 27.86 56.11C26.35 56.11 24.99 57.39 24.99 59.32C24.99 62.38 30.1 66.06 37.13 67.09L37.13 70.96C37.13 73.1 38.84 74.83 40.97 74.83C43.08 74.83 44.8 73.1 44.8 70.96L44.8 67.12C51.12 65.93 56.37 61.67 56.37 54.28ZM79.33 84.56L68.66 84.56C66.87 84.56 65.47 83.71 65.47 81.99C65.47 80.26 66.87 79.4 68.66 79.4L76.13 79.4L63.67 60.08C62.9 58.91 62.51 58.06 62.51 56.96C62.51 55.47 63.99 54.38 65.23 54.38C66.49 54.38 67.73 54.93 68.82 56.57L82.75 77.61L96.69 56.57C97.78 54.93 99.03 54.38 100.28 54.38C101.52 54.38 103 55.47 103 56.96C103 58.06 102.61 58.91 101.83 60.08L89.37 79.4L96.85 79.4C98.64 79.4 100.04 80.26 100.04 81.99C100.04 83.7 98.64 84.56 96.85 84.56L86.18 84.56L86.18 90.11L96.85 90.11C98.64 90.11 100.04 90.98 100.04 92.69C100.04 94.41 98.64 95.27 96.85 95.27L86.18 95.27L86.18 107.31C86.18 109.58 84.78 110.99 82.75 110.99C80.73 110.99 79.33 109.58 79.33 107.31L79.33 95.27L68.66 95.27C66.87 95.27 65.47 94.41 65.47 92.69C65.47 90.98 66.87 90.11 68.66 90.11L79.33 90.11L79.33 84.56Z" fill="#FFFFFF" fill-opacity="1.000000" fill-rule="nonzero"/>
		<path id="path" d="M79.27 32.99L61.4 22.22L72.12 40.17L61.4 50.94L90 50.94L90 22.22L79.27 32.99ZM40.92 95L58.79 105.77L48.07 87.82L58.79 77.05L30.2 77.05L30.2 105.77L40.92 95Z" fill="#D4D4D4" fill-opacity="1.000000" fill-rule="nonzero"/>
	</g>
</svg>
